<svg width="512" height="512" viewBox="0 0 512 512" fill="none" xmlns="http://www.w3.org/2000/svg">
<circle r="256" transform="matrix(-1 -8.74228e-08 -8.74228e-08 1 256 256)" fill="#181E32"/>
<mask id="path-2-outside-1_373_85" maskUnits="userSpaceOnUse" x="128.487" y="285" width="242" height="193" fill="black">
<rect fill="white" x="128.487" y="285" width="242" height="193"/>
<path d="M336 326C320.59 311.397 299.431 301.53 266.5 296L247 308C274.247 312.256 300.286 329.962 312.172 338.818C324.357 347.678 330.342 360.357 330.127 376.856L330.091 379.556C329.868 396.654 323.689 410.375 311.553 420.717C299.72 430.764 282.105 435.634 258.707 435.329C231.71 434.976 210.651 427.801 195.533 413.802C180.714 399.808 173.485 379.012 173.845 351.414V338.818H156.173H138.5L138.5 354C138.285 370.498 140.785 384.331 146 398.5C151.22 412.369 157.438 424.696 167.5 435.329C177.866 445.665 189.28 453.301 204.5 459.5C220.025 465.403 238.609 466.738 258.707 467C276.406 467.231 286.943 465.501 300.5 461.177C314.058 456.854 321.022 452.482 330.127 444.5C339.532 436.522 347.356 427.04 352 416C356.949 404.663 360.025 395.499 360.201 382V373C360.514 349.002 351.415 340.302 336 326Z"/>
</mask>
<path d="M336 326C320.59 311.397 299.431 301.53 266.5 296L247 308C274.247 312.256 300.286 329.962 312.172 338.818C324.357 347.678 330.342 360.357 330.127 376.856L330.091 379.556C329.868 396.654 323.689 410.375 311.553 420.717C299.72 430.764 282.105 435.634 258.707 435.329C231.71 434.976 210.651 427.801 195.533 413.802C180.714 399.808 173.485 379.012 173.845 351.414V338.818H156.173H138.5L138.5 354C138.285 370.498 140.785 384.331 146 398.5C151.22 412.369 157.438 424.696 167.5 435.329C177.866 445.665 189.28 453.301 204.5 459.5C220.025 465.403 238.609 466.738 258.707 467C276.406 467.231 286.943 465.501 300.5 461.177C314.058 456.854 321.022 452.482 330.127 444.5C339.532 436.522 347.356 427.04 352 416C356.949 404.663 360.025 395.499 360.201 382V373C360.514 349.002 351.415 340.302 336 326Z" fill="#FEFEFE"/>
<path d="M266.5 296L268.157 286.138L264.456 285.516L261.26 287.483L266.5 296ZM336 326L329.122 333.259L329.16 333.295L329.199 333.33L336 326ZM360.201 373L350.202 372.869L350.201 372.935V373H360.201ZM360.201 382L370.2 382.13L370.201 382.065V382H360.201ZM352 416L342.836 411.999L342.809 412.061L342.783 412.122L352 416ZM330.127 444.5L323.658 436.874L323.596 436.927L323.535 436.98L330.127 444.5ZM258.707 467L258.577 476.999L258.577 476.999L258.707 467ZM204.5 459.5L200.728 468.761L200.837 468.805L200.946 468.847L204.5 459.5ZM167.5 435.329L160.237 442.202L160.337 442.308L160.44 442.41L167.5 435.329ZM146 398.5L136.616 401.954L136.628 401.988L136.641 402.022L146 398.5ZM138.5 354L148.499 354.13L148.5 354.065L148.5 354L138.5 354ZM138.5 338.818V328.818C135.848 328.818 133.304 329.872 131.429 331.747C129.554 333.623 128.5 336.166 128.5 338.818L138.5 338.818ZM173.845 338.818H183.845C183.845 333.295 179.368 328.818 173.845 328.818V338.818ZM173.845 351.414L183.844 351.544L183.845 351.479V351.414H173.845ZM195.533 413.802L188.667 421.073L188.703 421.106L188.739 421.14L195.533 413.802ZM258.707 435.329L258.838 425.33L258.838 425.33L258.707 435.329ZM311.553 420.717L318.025 428.34L318.032 428.334L318.039 428.328L311.553 420.717ZM330.091 379.556L340.09 379.686L340.09 379.686L330.091 379.556ZM330.127 376.856L320.127 376.725L320.127 376.725L330.127 376.856ZM312.172 338.818L306.197 346.837L306.244 346.872L306.291 346.906L312.172 338.818ZM247 308L241.76 299.483C238.192 301.678 236.371 305.864 237.197 309.97C238.022 314.077 241.319 317.234 245.457 317.88L247 308ZM264.844 305.862C296.528 311.183 315.603 320.449 329.122 333.259L342.879 318.741C325.576 302.346 302.334 291.878 268.157 286.138L264.844 305.862ZM329.199 333.33C337.14 340.699 342.121 345.484 345.416 350.995C348.43 356.038 350.34 362.294 350.202 372.869L370.2 373.13C370.376 359.708 367.892 349.615 362.582 340.733C357.552 332.319 350.275 325.603 342.802 318.669L329.199 333.33ZM350.201 373V382H370.201V373H350.201ZM350.202 381.869C350.05 393.511 347.511 401.288 342.836 411.999L361.165 420C366.387 408.039 370 397.487 370.2 382.13L350.202 381.869ZM342.783 412.122C338.901 421.35 332.208 429.621 323.658 436.874L336.595 452.126C346.855 443.423 355.811 432.731 361.218 419.878L342.783 412.122ZM323.535 436.98C315.382 444.127 309.61 447.776 297.462 451.65L303.539 470.705C318.506 465.932 326.661 460.836 336.719 452.019L323.535 436.98ZM297.462 451.65C284.986 455.629 275.523 457.219 258.838 457.001L258.577 476.999C277.289 477.243 288.9 475.373 303.539 470.705L297.462 451.65ZM258.838 457.001C238.824 456.739 221.794 455.377 208.055 450.153L200.946 468.847C218.255 475.429 238.394 476.736 258.577 476.999L258.838 457.001ZM208.273 450.239C194.23 444.519 183.948 437.607 174.561 428.247L160.44 442.41C171.785 453.723 184.33 462.082 200.728 468.761L208.273 450.239ZM174.764 428.455C165.993 419.188 160.352 408.245 155.359 394.978L136.641 402.022C142.087 416.493 148.884 430.205 160.237 442.202L174.764 428.455ZM155.385 395.046C150.592 382.024 148.3 369.407 148.499 354.13L128.501 353.869C128.27 371.59 130.978 386.637 136.616 401.954L155.385 395.046ZM148.5 354L148.5 338.818L128.5 338.818L128.5 354L148.5 354ZM163.845 338.818V351.414H183.845V338.818H163.845ZM163.846 351.283C163.463 380.647 171.17 404.549 188.667 421.073L202.399 406.532C190.259 395.067 183.507 377.377 183.844 351.544L163.846 351.283ZM188.739 421.14C206.177 437.286 229.891 444.953 258.577 445.328L258.838 425.33C233.528 424.999 215.126 418.315 202.327 406.465L188.739 421.14ZM258.577 445.328C283.205 445.649 303.613 440.577 318.025 428.34L305.08 413.094C295.827 420.951 281.006 425.619 258.838 425.33L258.577 445.328ZM318.039 428.328C332.543 415.967 339.833 399.432 340.09 379.686L320.092 379.425C319.904 393.876 314.834 404.782 305.066 413.106L318.039 428.328ZM340.09 379.686L340.126 376.986L320.127 376.725L320.092 379.425L340.09 379.686ZM340.126 376.986C340.379 357.603 333.142 341.702 318.052 330.73L306.291 346.906C315.572 353.655 320.305 363.111 320.127 376.725L340.126 376.986ZM318.146 330.799C306.146 321.858 278.406 302.784 248.544 298.12L245.457 317.88C270.089 321.728 294.426 338.067 306.197 346.837L318.146 330.799ZM252.241 316.516L271.741 304.516L261.26 287.483L241.76 299.483L252.241 316.516ZM138.5 348.818H156.173V328.818H138.5V348.818ZM156.173 348.818H173.845V328.818H156.173V348.818Z" fill="#FEFEFE" mask="url(#path-2-outside-1_373_85)"/>
<path d="M351.5 284.5C350.5 286.232 350.5 286.232 350.5 286.232L350.501 286.233L350.505 286.235L350.518 286.242L350.566 286.27L350.595 286.287C350.636 286.31 350.688 286.34 350.752 286.376C350.914 286.469 351.151 286.604 351.453 286.774C352.057 287.114 352.923 287.597 353.971 288.169C356.066 289.311 358.902 290.813 361.852 292.246C364.789 293.672 367.898 295.057 370.522 295.94C371.827 296.38 373.091 296.722 374.193 296.865C375.165 296.99 376.545 297.042 377.629 296.3C378.835 295.476 378.787 294.118 378.704 293.526C378.605 292.826 378.325 292.081 378.005 291.382C377.348 289.947 376.249 288.132 374.908 286.127C372.209 282.091 368.311 276.968 364.342 271.961C360.364 266.943 356.283 262.002 353.199 258.319C351.656 256.476 350.361 254.946 349.452 253.877C349.055 253.41 348.732 253.031 348.493 252.752C348.302 242.708 344.327 231.416 340.435 222.712C336.499 213.144 328.115 205.165 320.676 198.656C312.993 191.696 303.548 186.21 292.384 182.172C281.39 178.11 268.901 176.1 254.947 176.1C250.236 176.1 245.663 176.352 241.229 176.857C240.791 176.703 240.354 176.543 239.919 176.379C238.949 176.013 237.872 176.449 237.421 177.359C231.868 178.19 226.541 179.434 221.441 181.094C211.431 184.194 202.688 188.738 195.241 194.743L195.216 194.763C188.01 200.768 182.351 207.868 178.258 216.055C176.151 220.269 174.349 226.754 173.073 233.279C171.855 239.508 171.08 245.973 171.006 250.852L134.483 293.346C134.171 293.709 134 294.172 134 294.65C134 295.638 134.262 296.716 135.105 297.528C135.93 298.322 136.981 298.54 137.863 298.551C139.543 298.572 141.62 297.854 143.709 296.926C148.013 295.014 153.724 291.566 159.386 288.135L159.775 287.9C165.384 284.501 170.948 281.129 175.361 279.033C177.64 277.951 179.442 277.292 180.702 277.092C181.275 277.001 181.598 277.028 181.744 277.062C182.313 278.239 182.837 279.373 183.345 280.473C186.052 286.338 188.305 291.218 194.547 296.212C194.552 296.216 194.558 296.22 194.563 296.224C194.568 296.228 194.574 296.233 194.58 296.237C201.771 301.751 210.363 306.276 220.324 309.833C220.342 309.84 220.36 309.846 220.378 309.852C230.543 313.161 241.862 315.635 254.324 317.281C275.463 320.302 290.345 325.146 299.273 331.619L299.292 331.633C303.264 334.442 307.009 335.262 309.565 335.821C310.308 335.983 310.95 336.124 311.468 336.285C312.615 336.641 313.191 337.039 313.602 337.755C314.094 338.61 314.5 340.19 314.5 343.3C314.5 343.985 314.851 344.623 315.43 344.989L336.606 358.406C336.652 361.233 336.859 364.787 337.084 368.673C337.121 369.298 337.158 369.932 337.194 370.572C337.492 375.773 337.79 381.499 337.798 387.053C337.798 387.08 337.798 387.108 337.798 387.135C337.469 388.023 337.12 388.903 336.753 389.774L336.743 389.798C333.365 398.132 328.187 405.342 321.183 411.442L321.159 411.463C314.396 417.55 305.898 422.324 295.614 425.753C285.361 429.17 273.449 430.9 259.847 430.9C244.41 430.9 230.773 428.712 218.906 424.38C207.652 419.964 198.147 414.079 190.356 406.744C183.46 397.907 178 387.308 178 375C178 374.953 177.998 374.905 177.995 374.858L174.995 332.658C174.921 331.611 174.05 330.8 173 330.8H163.597C162.492 330.8 161.597 331.695 161.597 332.8V343.3C161.597 356.355 163.734 368.5 168.029 379.715L168.034 379.729C172.33 390.707 178.541 400.383 186.662 408.743C186.676 408.757 186.689 408.771 186.703 408.784C186.928 409.002 187.153 409.219 187.38 409.435C192.183 415.551 197.545 420.742 202.143 424.972L202.157 424.985C205.425 427.933 209.897 430.103 214.952 431.729C220.026 433.36 225.815 434.483 231.83 435.258C243.856 436.81 256.993 437 267.5 437C276.95 437 291.564 433.374 304.81 428.842C311.47 426.563 317.859 424.029 323.174 421.555C328.434 419.106 332.812 416.639 335.314 414.457L335.317 414.455C338.178 411.952 339.734 407.712 340.62 403.054C341.481 398.533 341.779 393.235 341.798 387.846C344.736 379.68 346.197 370.893 346.197 361.5V361.5V361.5V361.499V361.499V361.499V361.499V361.499V361.499V361.498V361.498V361.498V361.498V361.498V361.498V361.498V361.497V361.497V361.497V361.497V361.497V361.496V361.496V361.496V361.496V361.495V361.495V361.495V361.495V361.494V361.494V361.494V361.493V361.493V361.493V361.492V361.492V361.492V361.491V361.491V361.49V361.49V361.49V361.489V361.489V361.488V361.488V361.487V361.487V361.486V361.486V361.485V361.484V361.484V361.483V361.483V361.482V361.481V361.481V361.48V361.479V361.479V361.478V361.477V361.476V361.475V361.475V361.474V361.473V361.472V361.471V361.47V361.469V361.469V361.468V361.467V361.466V361.465V361.464V361.463V361.462V361.46V361.459V361.458V361.457V361.456V361.455V361.453V361.452V361.451V361.45V361.448V361.447V361.446V361.444V361.443V361.442V361.44V361.439V361.437V361.436V361.434V361.433V361.431V361.43V361.428V361.426V361.425V361.423V361.421V361.419V361.418V361.416V361.414V361.412V361.41V361.408V361.406V361.404V361.402V361.4V361.398V361.396V361.394V361.392V361.39V361.388V361.386V361.383V361.381V361.379V361.376V361.374V361.372V361.369V361.367V361.364V361.362V361.359V361.357V361.354V361.351V361.349V361.346V361.343V361.341V361.338V361.335V361.332V361.329V361.326V361.323V361.32V361.317V361.314V361.311V361.308V361.305V361.302V361.298V361.295V361.292V361.289V361.285V361.282V361.278V361.275V361.271V361.268V361.264V361.261V361.257V361.253V361.25V361.246V361.242V361.238V361.234V361.23V361.226V361.222V361.218V361.214V361.21V361.206V361.202V361.197V361.193V361.189V361.184V361.18V361.176V361.171V361.167V361.162V361.157V361.153V361.148V361.143V361.139V361.134V361.129V361.124V361.119V361.114V361.109V361.104V361.099V361.094V361.089V361.083V361.078V361.073V361.067V361.062V361.056V361.051V361.045V361.04V361.034V361.028V361.023V361.017V361.011V361.005V360.999V360.993V360.987V360.981V360.975V360.969V360.962V360.956V360.95V360.943V360.937V360.931V360.924V360.918V360.911V360.904V360.898V360.891V360.884V360.877V360.87V360.863V360.856V360.849V360.842V360.835V360.828V360.82V360.813V360.806V360.798V360.791V360.783V360.775V360.768V360.76V360.752V360.745V360.737V360.729V360.721V360.713V360.705V360.697V360.688V360.68V360.672V360.663V360.655V360.646V360.638V360.629V360.621V360.612V360.603V360.594V360.586V360.577V360.568V360.559V360.549V360.54V360.531V360.522V360.512V360.503V360.494V360.484V360.474V360.465V360.455V360.445V360.436V360.426V360.416V360.406V360.396V360.385V360.375V360.365V360.355V360.344V360.334V360.323V360.313V360.302V360.292V360.281V360.27V360.259V360.248V360.237V360.226V360.215V360.204V360.192V360.181V360.17V360.158V360.147V360.135V360.123V360.112V360.1V360.088V360.076V360.064V360.052V360.04V360.028V360.015V360.003V359.991V359.978V359.966V359.953V359.94V359.928V359.915V359.902V359.889V359.876V359.863V359.85V359.836V359.823V359.81V359.796V359.783V359.769V359.756V359.742V359.728V359.714V359.7V359.686V359.672V359.658V359.644V359.629V359.615V359.6V359.586V359.571V359.557V359.542V359.527V359.512V359.497V359.482V359.467V359.452V359.436V359.421V359.406V359.39V359.375V359.359V359.343V359.327V359.311V359.295V359.279V359.263V359.247V359.231V359.214V359.198V359.181V359.165V359.148V359.131V359.115V359.098V359.081V359.064V359.046V359.029V359.012V358.994V358.977V358.959V358.942V358.924V358.906V358.888V358.87V358.852V358.834V358.816V358.798V358.779V358.761V358.742V358.724V358.705V358.686V358.667V358.648V358.629V358.61V358.591V358.572V358.552V358.533V358.513V358.494V358.474V358.454V358.434V358.414V358.394V358.374V358.354V358.333V358.313V358.292V358.272V358.251V358.23V358.209V358.188V358.167V358.146V358.125V358.104V358.082V358.061V358.039V358.018V357.996V357.974V357.952V357.93V357.908V357.886V357.863V357.841V357.818V357.796V357.773V357.75V357.727V357.704V357.681V357.658V357.635V357.612V357.588V357.565V357.541V357.517V357.494V357.47V357.446V357.422V357.398V357.373V357.349V357.324V357.3C346.197 356.375 345.874 355.329 345.485 354.352C345.072 353.315 344.486 352.121 343.772 350.824C342.341 348.226 340.326 345.092 337.947 341.773C333.198 335.143 326.896 327.629 320.696 322.023C318.43 319.931 316.12 317.535 313.677 315.002C303.471 304.415 290.946 291.422 269.602 288.123L269.591 288.122C258.685 286.497 249.197 284.645 241.12 282.569C233.1 280.276 226.404 277.545 220.998 274.397C215.868 271.045 212.034 267.185 209.423 262.839C206.834 258.3 205.497 252.829 205.497 246.35V244.25C205.497 238.254 206.826 233.138 209.412 228.829C209.419 228.817 209.426 228.804 209.433 228.792C212.082 224.157 215.607 220.298 220.025 217.201C224.728 214.069 230.003 211.71 235.867 210.131C235.889 210.125 235.912 210.118 235.935 210.111C241.799 208.307 248.016 207.4 254.597 207.4C262.112 207.4 269.268 208.424 276.072 210.466C282.872 212.506 288.844 215.441 294.008 219.258C299.117 223.034 303.113 227.805 306.008 233.594C306.017 233.612 306.026 233.63 306.036 233.648C307.679 236.701 312.044 244.507 315.985 251.529C317.959 255.044 319.83 258.37 321.207 260.817C321.896 262.041 322.462 263.044 322.855 263.742L323.31 264.549L323.429 264.76L323.46 264.814L323.467 264.828L323.469 264.831L323.47 264.832C323.47 264.832 323.47 264.832 325.212 263.85L323.47 264.832C323.599 265.06 323.771 265.261 323.976 265.423L350.265 286.073C350.339 286.131 350.418 286.184 350.5 286.232L351.5 284.5Z" fill="#FEFEFE" stroke="#FEFEFE" stroke-width="4" stroke-linecap="round" stroke-linejoin="round"/>
<circle cx="242.5" cy="109.5" r="7.5" fill="#FEFEFE"/>
<circle cx="285.5" cy="109.5" r="7.5" fill="#FEFEFE"/>
<path d="M234.5 131C251.807 163.928 283.884 146.67 291.5 132.5" stroke="#FEFEFE" stroke-width="10" stroke-linecap="round" stroke-linejoin="round"/>
<path d="M223.338 167.409C211.131 157.481 202.49 143.104 200.103 126.298C195.076 90.9004 219.696 58.1298 255.093 53.1026C290.49 48.0753 323.261 72.6951 328.288 108.092C330.756 125.472 326.078 142.218 316.486 155.358C312.918 160.246 308.67 164.636 303.857 168.373" stroke="#FEFEFE" stroke-width="20" stroke-linecap="round"/>
</svg>
