<svg width="253" height="416" viewBox="0 0 253 416" fill="none" xmlns="http://www.w3.org/2000/svg">
<mask id="path-1-outside-1_373_91" maskUnits="userSpaceOnUse" x="0.486816" y="223" width="242" height="193" fill="black">
<rect fill="white" x="0.486816" y="223" width="242" height="193"/>
<path d="M208 264C192.589 249.398 171.431 239.53 138.5 234L119 246C146.247 250.256 172.286 267.963 184.171 276.818C196.356 285.678 202.341 298.357 202.126 314.856L202.091 317.556C201.868 334.654 195.688 348.375 183.552 358.717C171.72 368.764 154.105 373.634 130.707 373.329C103.709 372.976 82.651 365.801 67.5324 351.802C52.7138 337.808 45.4846 317.012 45.8448 289.414V276.818H28.1722H10.4995L10.4996 292C10.2843 308.499 12.7842 322.331 17.9997 336.5C23.2192 350.369 29.4379 362.697 39.5 373.329C49.866 383.665 61.2796 391.301 76.5 397.5C92.0243 403.403 110.609 404.738 130.707 405C148.405 405.231 158.942 403.501 172.5 399.178C186.058 394.854 193.021 390.482 202.126 382.5C211.531 374.522 219.356 365.04 224 354C228.948 342.664 232.025 333.499 232.201 320V311C232.514 287.002 223.415 278.302 208 264Z"/>
</mask>
<path d="M208 264C192.589 249.398 171.431 239.53 138.5 234L119 246C146.247 250.256 172.286 267.963 184.171 276.818C196.356 285.678 202.341 298.357 202.126 314.856L202.091 317.556C201.868 334.654 195.688 348.375 183.552 358.717C171.72 368.764 154.105 373.634 130.707 373.329C103.709 372.976 82.651 365.801 67.5324 351.802C52.7138 337.808 45.4846 317.012 45.8448 289.414V276.818H28.1722H10.4995L10.4996 292C10.2843 308.499 12.7842 322.331 17.9997 336.5C23.2192 350.369 29.4379 362.697 39.5 373.329C49.866 383.665 61.2796 391.301 76.5 397.5C92.0243 403.403 110.609 404.738 130.707 405C148.405 405.231 158.942 403.501 172.5 399.178C186.058 394.854 193.021 390.482 202.126 382.5C211.531 374.522 219.356 365.04 224 354C228.948 342.664 232.025 333.499 232.201 320V311C232.514 287.002 223.415 278.302 208 264Z" fill="#FEFEFE"/>
<path d="M138.5 234L140.156 224.138L136.455 223.517L133.259 225.483L138.5 234ZM208 264L201.122 271.259L201.16 271.295L201.198 271.331L208 264ZM232.201 311L222.202 310.87L222.201 310.935V311H232.201ZM232.201 320L242.2 320.131L242.201 320.065V320H232.201ZM224 354L214.835 350L214.808 350.061L214.782 350.122L224 354ZM202.126 382.5L195.657 374.874L195.595 374.927L195.534 374.98L202.126 382.5ZM130.707 405L130.576 414.999L130.576 414.999L130.707 405ZM76.5 397.5L72.7279 406.761L72.8363 406.806L72.9458 406.847L76.5 397.5ZM39.5 373.329L32.2369 380.203L32.3365 380.308L32.4391 380.41L39.5 373.329ZM17.9997 336.5L8.61528 339.954L8.62778 339.988L8.64054 340.022L17.9997 336.5ZM10.4996 292L20.4988 292.131L20.4996 292.065L20.4996 292L10.4996 292ZM10.4995 276.818V266.818C7.84733 266.818 5.30378 267.872 3.42842 269.747C1.55305 271.623 0.499492 274.166 0.499512 276.819L10.4995 276.818ZM45.8448 276.818H55.8448C55.8448 271.296 51.3677 266.818 45.8448 266.818V276.818ZM45.8448 289.414L55.844 289.545L55.8448 289.479V289.414H45.8448ZM67.5324 351.802L60.6663 359.073L60.7022 359.107L60.7383 359.14L67.5324 351.802ZM130.707 373.329L130.837 363.33L130.837 363.33L130.707 373.329ZM183.552 358.717L190.024 366.34L190.031 366.334L190.038 366.328L183.552 358.717ZM202.091 317.556L212.09 317.686L212.09 317.686L202.091 317.556ZM202.126 314.856L192.127 314.726L192.127 314.726L202.126 314.856ZM184.171 276.818L178.196 284.837L178.243 284.872L178.29 284.907L184.171 276.818ZM119 246L113.759 237.483C110.192 239.679 108.371 243.864 109.196 247.971C110.021 252.077 113.318 255.234 117.457 255.88L119 246ZM136.844 243.862C168.527 249.183 187.603 258.449 201.122 271.259L214.878 256.741C197.576 240.346 174.334 229.878 140.156 224.138L136.844 243.862ZM201.198 271.331C209.14 278.699 214.12 283.484 217.415 288.996C220.43 294.038 222.34 300.294 222.202 310.87L242.2 311.131C242.375 297.708 239.892 287.616 234.581 278.733C229.551 270.32 222.275 263.604 214.802 256.669L201.198 271.331ZM222.201 311V320H242.201V311H222.201ZM222.202 319.87C222.05 331.511 219.511 339.288 214.835 350L233.165 358.001C238.386 346.039 241.999 335.487 242.2 320.131L222.202 319.87ZM214.782 350.122C210.9 359.35 204.208 367.621 195.657 374.874L208.595 390.126C218.854 381.423 227.811 370.731 233.218 357.878L214.782 350.122ZM195.534 374.98C187.381 382.127 181.61 385.776 169.462 389.65L175.538 408.705C190.505 403.932 198.661 398.836 208.718 390.02L195.534 374.98ZM169.462 389.65C156.985 393.629 147.523 395.219 130.837 395.001L130.576 414.999C149.288 415.243 160.9 413.373 175.538 408.705L169.462 389.65ZM130.837 395.001C110.823 394.74 93.794 393.378 80.0542 388.153L72.9458 406.847C90.2546 413.429 110.394 414.736 130.576 414.999L130.837 395.001ZM80.2721 388.239C66.2297 382.519 55.9472 375.607 46.5609 366.248L32.4391 380.41C43.7848 391.723 56.3295 400.082 72.7279 406.761L80.2721 388.239ZM46.7631 366.455C37.9926 357.188 32.3518 346.245 27.3589 332.978L8.64054 340.022C14.0865 354.494 20.8832 368.205 32.2369 380.203L46.7631 366.455ZM27.3842 333.046C22.5912 320.024 20.2994 307.407 20.4988 292.131L0.500479 291.87C0.269169 309.59 2.97729 324.637 8.61528 339.954L27.3842 333.046ZM20.4996 292L20.4995 276.818L0.499512 276.819L0.499627 292L20.4996 292ZM35.8448 276.818V289.414H55.8448V276.818H35.8448ZM35.8457 289.284C35.4624 318.647 43.1695 342.549 60.6663 359.073L74.3984 344.532C62.258 333.067 55.5068 315.377 55.844 289.545L35.8457 289.284ZM60.7383 359.14C78.1766 375.286 101.891 382.954 130.576 383.328L130.837 363.33C105.528 362.999 87.1253 356.315 74.3264 344.465L60.7383 359.14ZM130.576 383.328C155.205 383.649 175.613 378.577 190.024 366.34L177.08 351.094C167.827 358.951 153.005 363.619 130.837 363.33L130.576 383.328ZM190.038 366.328C204.543 353.968 211.832 337.432 212.09 317.686L192.092 317.425C191.903 331.877 186.833 342.782 177.066 351.106L190.038 366.328ZM212.09 317.686L212.125 314.987L192.127 314.726L192.092 317.425L212.09 317.686ZM212.125 314.987C212.378 295.603 205.141 279.702 190.052 268.73L178.29 284.907C187.571 291.655 192.305 301.112 192.127 314.726L212.125 314.987ZM190.146 268.8C178.146 259.858 150.405 240.784 120.543 236.12L117.457 255.88C142.088 259.728 166.425 276.067 178.196 284.837L190.146 268.8ZM124.241 254.517L143.741 242.517L133.259 225.483L113.759 237.483L124.241 254.517ZM10.4995 286.818H28.1722V266.818H10.4995V286.818ZM28.1722 286.818H45.8448V266.818H28.1722V286.818Z" fill="#FEFEFE" mask="url(#path-1-outside-1_373_91)"/>
<path d="M223.5 222.5C222.499 224.232 222.5 224.232 222.5 224.232L222.501 224.233L222.504 224.235L222.517 224.242L222.566 224.27L222.595 224.287C222.635 224.31 222.687 224.34 222.751 224.377C222.913 224.469 223.15 224.604 223.453 224.774C224.057 225.114 224.922 225.597 225.97 226.169C228.065 227.311 230.901 228.814 233.852 230.246C236.789 231.672 239.898 233.057 242.522 233.94C243.827 234.38 245.09 234.722 246.193 234.865C247.164 234.991 248.544 235.043 249.629 234.301C250.834 233.476 250.786 232.118 250.703 231.526C250.605 230.826 250.325 230.081 250.004 229.382C249.348 227.947 248.249 226.132 246.908 224.128C244.208 220.091 240.311 214.969 236.341 209.961C232.364 204.943 228.283 200.003 225.198 196.319C223.656 194.476 222.361 192.947 221.452 191.877C221.055 191.411 220.731 191.031 220.492 190.752C220.301 180.709 216.327 169.417 212.435 160.712C208.499 151.144 200.114 143.166 192.676 136.656C184.992 129.696 175.547 124.211 164.383 120.172C153.389 116.11 140.9 114.1 126.946 114.1C122.236 114.1 117.663 114.352 113.228 114.858C112.79 114.703 112.353 114.544 111.918 114.379C110.948 114.013 109.872 114.449 109.421 115.359C103.868 116.19 98.5405 117.434 93.4409 119.094C83.4301 122.194 74.6871 126.738 67.2407 132.743L67.2158 132.764C60.0098 138.769 54.3508 145.869 50.2573 154.056C48.1506 158.269 46.3481 164.754 45.0725 171.279C43.8548 177.508 43.079 183.973 43.0053 188.852L6.48274 231.346C6.17095 231.709 5.99951 232.172 5.99951 232.65C5.99951 233.638 6.26168 234.717 7.10481 235.528C7.9294 236.322 8.98003 236.541 9.86242 236.552C11.5422 236.573 13.6194 235.854 15.7083 234.926C20.0124 233.015 25.7239 229.566 31.3859 226.136L31.7746 225.9C37.3838 222.501 42.9478 219.129 47.3608 217.033C49.639 215.951 51.4419 215.293 52.7011 215.092C53.2748 215.001 53.5972 215.029 53.7432 215.062C54.3124 216.239 54.8363 217.374 55.3442 218.474C58.0517 224.338 60.3046 229.218 66.5468 234.212C66.552 234.216 66.5572 234.22 66.5624 234.224C66.568 234.229 66.5737 234.233 66.5793 234.237C73.7708 239.751 82.3621 244.276 92.3235 247.834C92.3413 247.84 92.3591 247.846 92.377 247.852C102.543 251.162 113.861 253.635 126.324 255.282C147.462 258.302 162.344 263.146 171.272 269.619L171.291 269.633C175.263 272.442 179.009 273.262 181.565 273.821C182.307 273.984 182.949 274.124 183.467 274.285C184.614 274.641 185.191 275.039 185.602 275.755C186.093 276.611 186.5 278.19 186.5 281.3C186.5 281.985 186.85 282.623 187.429 282.99L208.606 296.407C208.652 299.233 208.858 302.787 209.084 306.673C209.12 307.298 209.157 307.932 209.194 308.572C209.492 313.774 209.789 319.5 209.798 325.053C209.798 325.081 209.798 325.108 209.798 325.135C209.468 326.023 209.12 326.903 208.753 327.774L208.743 327.799C205.364 336.132 200.186 343.342 193.183 349.442L193.158 349.464C186.395 355.55 177.898 360.325 167.614 363.753C157.36 367.171 145.448 368.9 131.846 368.9C116.409 368.9 102.772 366.712 90.9051 362.38C79.6519 357.964 70.1469 352.079 62.3559 344.744C55.4592 335.908 49.9995 325.308 49.9995 313C49.9995 312.953 49.9978 312.906 49.9945 312.858L46.9945 270.658C46.9201 269.611 46.049 268.8 44.9995 268.8H35.5962C34.4916 268.8 33.5962 269.696 33.5962 270.8V281.3C33.5962 294.355 35.7332 306.5 40.0285 317.715L40.0337 317.729C44.3295 328.707 50.5405 338.384 58.6616 346.744C58.6751 346.758 58.6888 346.771 58.7026 346.785C58.927 347.003 59.1528 347.219 59.38 347.435C64.1826 353.552 69.5443 358.742 74.1421 362.972L74.1567 362.985C77.4248 365.933 81.8968 368.104 86.9517 369.729C92.0252 371.361 97.8146 372.483 103.83 373.259C115.855 374.81 128.992 375 139.5 375C148.95 375 163.564 371.375 176.809 366.842C183.469 364.564 189.859 362.03 195.173 359.555C200.434 357.106 204.812 354.639 207.314 352.458L207.317 352.455C210.177 349.952 211.733 345.712 212.62 341.054C213.481 336.533 213.779 331.235 213.797 325.846C216.735 317.68 218.196 308.893 218.196 299.5V299.5V299.5V299.5V299.5V299.499V299.499V299.499V299.499V299.499V299.499V299.498V299.498V299.498V299.498V299.498V299.498V299.497V299.497V299.497V299.497V299.497V299.496V299.496V299.496V299.496V299.495V299.495V299.495V299.495V299.494V299.494V299.494V299.493V299.493V299.493V299.492V299.492V299.492V299.491V299.491V299.49V299.49V299.489V299.489V299.488V299.488V299.487V299.487V299.486V299.486V299.485V299.485V299.484V299.483V299.483V299.482V299.482V299.481V299.48V299.479V299.479V299.478V299.477V299.477V299.476V299.475V299.474V299.473V299.472V299.472V299.471V299.47V299.469V299.468V299.467V299.466V299.465V299.464V299.463V299.462V299.461V299.46V299.458V299.457V299.456V299.455V299.454V299.452V299.451V299.45V299.449V299.447V299.446V299.445V299.443V299.442V299.44V299.439V299.438V299.436V299.434V299.433V299.431V299.43V299.428V299.426V299.425V299.423V299.421V299.42V299.418V299.416V299.414V299.412V299.41V299.409V299.407V299.405V299.403V299.401V299.399V299.397V299.394V299.392V299.39V299.388V299.386V299.384V299.381V299.379V299.377V299.374V299.372V299.37V299.367V299.365V299.362V299.36V299.357V299.354V299.352V299.349V299.346V299.344V299.341V299.338V299.335V299.332V299.329V299.327V299.324V299.321V299.318V299.315V299.311V299.308V299.305V299.302V299.299V299.295V299.292V299.289V299.285V299.282V299.279V299.275V299.272V299.268V299.264V299.261V299.257V299.253V299.25V299.246V299.242V299.238V299.234V299.23V299.227V299.223V299.218V299.214V299.21V299.206V299.202V299.198V299.193V299.189V299.185V299.18V299.176V299.171V299.167V299.162V299.158V299.153V299.148V299.144V299.139V299.134V299.129V299.124V299.119V299.114V299.109V299.104V299.099V299.094V299.089V299.084V299.078V299.073V299.068V299.062V299.057V299.051V299.046V299.04V299.034V299.029V299.023V299.017V299.011V299.005V298.999V298.993V298.987V298.981V298.975V298.969V298.963V298.956V298.95V298.944V298.937V298.931V298.924V298.918V298.911V298.904V298.898V298.891V298.884V298.877V298.87V298.863V298.856V298.849V298.842V298.835V298.828V298.82V298.813V298.806V298.798V298.791V298.783V298.776V298.768V298.76V298.753V298.745V298.737V298.729V298.721V298.713V298.705V298.697V298.689V298.68V298.672V298.664V298.655V298.647V298.638V298.63V298.621V298.612V298.603V298.595V298.586V298.577V298.568V298.559V298.55V298.541V298.531V298.522V298.513V298.503V298.494V298.484V298.475V298.465V298.455V298.446V298.436V298.426V298.416V298.406V298.396V298.386V298.376V298.365V298.355V298.345V298.334V298.324V298.313V298.302V298.292V298.281V298.27V298.259V298.248V298.237V298.226V298.215V298.204V298.193V298.181V298.17V298.158V298.147V298.135V298.124V298.112V298.1V298.088V298.076V298.064V298.052V298.04V298.028V298.016V298.003V297.991V297.978V297.966V297.953V297.941V297.928V297.915V297.902V297.889V297.876V297.863V297.85V297.837V297.823V297.81V297.797V297.783V297.769V297.756V297.742V297.728V297.714V297.7V297.686V297.672V297.658V297.644V297.63V297.615V297.601V297.586V297.572V297.557V297.542V297.527V297.512V297.497V297.482V297.467V297.452V297.437V297.421V297.406V297.39V297.375V297.359V297.343V297.328V297.312V297.296V297.28V297.264V297.247V297.231V297.215V297.198V297.182V297.165V297.148V297.132V297.115V297.098V297.081V297.064V297.047V297.029V297.012V296.995V296.977V296.96V296.942V296.924V296.907V296.889V296.871V296.853V296.834V296.816V296.798V296.78V296.761V296.743V296.724V296.705V296.686V296.668V296.649V296.63V296.61V296.591V296.572V296.552V296.533V296.513V296.494V296.474V296.454V296.434V296.414V296.394V296.374V296.354V296.333V296.313V296.293V296.272V296.251V296.23V296.21V296.189V296.168V296.146V296.125V296.104V296.082V296.061V296.039V296.018V295.996V295.974V295.952V295.93V295.908V295.886V295.863V295.841V295.819V295.796V295.773V295.751V295.728V295.705V295.682V295.659V295.635V295.612V295.589V295.565V295.541V295.518V295.494V295.47V295.446V295.422V295.398V295.374V295.349V295.325V295.3C218.196 294.376 217.873 293.329 217.484 292.352C217.071 291.315 216.486 290.121 215.772 288.824C214.341 286.227 212.326 283.093 209.947 279.773C205.197 273.143 198.895 265.629 192.695 260.024C190.429 257.931 188.12 255.535 185.677 253.002C175.471 242.415 162.945 229.422 141.602 226.124L141.591 226.122C130.684 224.498 121.197 222.645 113.12 220.57C105.1 218.277 98.4034 215.545 92.9971 212.398C87.8676 209.045 84.0337 205.185 81.4222 200.839C78.8331 196.3 77.4962 190.829 77.4962 184.35V182.25C77.4962 176.255 78.8254 171.139 81.4112 166.829C81.4185 166.817 81.4256 166.805 81.4327 166.792C84.0811 162.158 87.6061 158.298 92.0246 155.202C96.7274 152.069 102.003 149.71 107.866 148.131C107.889 148.125 107.912 148.119 107.934 148.112C113.798 146.307 120.016 145.4 126.596 145.4C134.112 145.4 141.268 146.425 148.072 148.466C154.872 150.506 160.843 153.441 166.007 157.258C171.116 161.035 175.113 165.805 178.007 171.595C178.016 171.613 178.026 171.631 178.035 171.648C179.679 174.701 184.043 182.507 187.985 189.529C189.958 193.045 191.829 196.37 193.207 198.817C193.896 200.041 194.461 201.045 194.855 201.742L195.31 202.549L195.429 202.76L195.459 202.814L195.467 202.828L195.469 202.832L195.469 202.832C195.469 202.833 195.469 202.833 197.211 201.85L195.469 202.833C195.598 203.061 195.77 203.261 195.976 203.423L222.264 224.073C222.339 224.131 222.417 224.185 222.499 224.232L223.5 222.5Z" fill="#FEFEFE" stroke="#FEFEFE" stroke-width="4" stroke-linecap="round" stroke-linejoin="round"/>
<circle cx="114.5" cy="47.5" r="7.5" fill="#FEFEFE"/>
<circle cx="157.499" cy="47.5" r="7.5" fill="#FEFEFE"/>
<path d="M106.499 69C123.807 101.929 155.884 84.67 163.499 70.5" stroke="#FEFEFE" stroke-width="10" stroke-linecap="round" stroke-linejoin="round"/>
<path d="M99.7239 104.896C89.4471 96.538 82.1724 84.4343 80.1629 70.2853C75.9305 40.4848 96.6576 12.8957 126.458 8.66339C156.259 4.43103 183.848 25.1581 188.08 54.9586C190.158 69.59 186.219 83.6884 178.144 94.751C175.14 98.8662 171.563 102.561 167.512 105.708" stroke="#FEFEFE" stroke-width="15" stroke-linecap="round"/>
</svg>
