<svg width="785" height="193" viewBox="0 0 785 193" fill="none" xmlns="http://www.w3.org/2000/svg">
<path d="M25.984 116.44V125.368C26.56 132.088 28.288 137.944 31.168 142.936C34.24 147.928 38.08 152.152 42.688 155.608C47.296 158.872 52.384 161.368 57.952 163.096C63.712 164.824 69.472 165.688 75.232 165.688C81.184 165.688 86.944 165.016 92.512 163.672C98.08 162.136 103.072 159.928 107.488 157.048C111.904 154.168 115.456 150.616 118.144 146.392C120.832 142.168 122.176 137.272 122.176 131.704C122.176 125.56 120.448 120.76 116.992 117.304C113.728 113.848 109.408 111.256 104.032 109.528C98.656 107.608 92.512 106.264 85.6 105.496C78.688 104.728 71.584 103.864 64.288 102.904C56.992 101.944 49.888 100.696 42.976 99.16C36.064 97.432 29.92 94.744 24.544 91.096C19.168 87.256 14.752 82.264 11.296 76.12C8.032 69.784 6.4 61.624 6.4 51.64C6.4 43 8.224 35.512 11.872 29.176C15.712 22.648 20.704 17.272 26.848 13.048C33.184 8.63199 40.288 5.36799 48.16 3.256C56.032 1.14399 64.096 0.087986 72.352 0.087986C80.608 0.087986 88.672 1.14399 96.544 3.256C104.416 5.36799 111.424 8.63199 117.568 13.048C123.904 17.272 128.992 22.648 132.832 29.176C136.672 35.512 138.688 43 138.88 51.64V57.688H114.112V51.64C113.344 47.032 111.52 43.096 108.64 39.832C105.76 36.376 102.304 33.496 98.272 31.192C94.24 28.888 89.728 27.16 84.736 26.008C79.936 24.856 75.04 24.28 70.048 24.28C65.056 24.28 60.16 24.856 55.36 26.008C50.752 27.16 46.624 28.888 42.976 31.192C39.52 33.496 36.64 36.376 34.336 39.832C32.224 43.096 31.168 47.032 31.168 51.64C31.168 57.784 32.8 62.584 36.064 66.04C39.52 69.304 43.936 71.896 49.312 73.816C54.688 75.544 60.832 76.792 67.744 77.56C74.848 78.328 81.952 79.288 89.056 80.44C96.352 81.4 103.456 82.744 110.368 84.472C117.472 86.2 123.712 88.984 129.088 92.824C134.464 96.472 138.784 101.368 142.048 107.512C145.504 113.656 147.232 121.72 147.232 131.704C147.232 142.456 145.312 151.576 141.472 159.064C137.632 166.552 132.544 172.696 126.208 177.496C119.872 182.104 112.576 185.464 104.32 187.576C96.256 189.88 88 191.032 79.552 191.032C54.4 191.032 34.912 184.504 21.088 171.448C7.456 158.2 0.64 139.864 0.64 116.44H25.984ZM199.169 63.16C200.513 57.976 203.009 53.752 206.657 50.488C210.497 47.032 214.529 44.44 218.753 42.712C223.169 40.792 227.489 39.544 231.713 38.968C235.937 38.2 239.201 37.816 241.505 37.816C252.449 37.816 261.857 39.16 269.729 41.848C277.793 44.536 284.321 48.76 289.313 54.52C294.497 60.28 298.337 67.864 300.833 77.272C303.329 86.488 304.577 97.72 304.577 110.968V187.288H278.657V110.968C278.849 109.432 278.945 107.896 278.945 106.36C279.137 104.824 279.233 103.288 279.233 101.752C279.233 97.144 278.369 92.536 276.641 87.928C274.913 83.32 272.417 79.192 269.153 75.544C266.081 71.896 262.145 69.016 257.345 66.904C252.737 64.6 247.553 63.448 241.793 63.448C237.185 63.448 232.385 64.6 227.393 66.904C222.401 69.208 217.793 72.376 213.569 76.408C209.537 80.248 206.177 84.856 203.489 90.232C200.801 95.416 199.457 101.08 199.457 107.224V187.288H173.249V0.951992H199.457L199.169 63.16ZM447.189 127.96C447.189 135.256 447.189 142.456 447.189 149.56C447.189 156.472 447.093 162.712 446.901 168.28C446.901 173.656 446.901 178.072 446.901 181.528C446.901 184.792 446.901 186.52 446.901 186.712H420.405V171.448C414.837 178.36 408.117 183.256 400.245 186.136C392.373 189.016 384.309 190.456 376.053 190.456C369.333 190.456 362.613 189.4 355.893 187.288C349.173 185.368 343.125 182.392 337.749 178.36C332.373 174.328 328.053 169.336 324.789 163.384C321.525 157.24 319.893 150.136 319.893 142.072C319.893 133.816 321.237 126.712 323.925 120.76C326.805 114.808 330.645 110.008 335.445 106.36C340.437 102.52 346.197 99.736 352.725 98.008C359.445 96.28 366.741 95.416 374.613 95.416C381.525 95.416 388.821 95.992 396.501 97.144C404.373 98.296 412.341 100.12 420.405 102.616V101.464C420.789 99.928 420.981 98.584 420.981 97.432C420.981 96.28 420.981 95.032 420.981 93.688C420.981 88.504 419.925 83.992 417.813 80.152C415.893 76.312 413.301 73.144 410.037 70.648C406.773 68.152 403.029 66.328 398.805 65.176C394.773 63.832 390.549 63.16 386.133 63.16C381.909 63.16 377.781 63.64 373.749 64.6C369.717 65.56 366.069 67.096 362.805 69.208C359.541 71.32 356.853 74.008 354.741 77.272C352.629 80.344 351.477 84.088 351.285 88.504H324.789C325.365 80.056 327.381 72.664 330.837 66.328C334.485 59.992 338.997 54.808 344.373 50.776C349.941 46.552 356.181 43.384 363.093 41.272C370.005 39.16 377.109 38.104 384.405 38.104C392.853 38.104 400.821 39.256 408.309 41.56C415.797 43.864 422.325 47.512 427.893 52.504C433.653 57.496 438.165 63.928 441.429 71.8C444.885 79.48 446.709 88.888 446.901 100.024V101.464C449.781 101.08 452.661 100.6 455.541 100.024C458.613 99.448 461.781 98.776 465.045 98.008V125.08L447.189 127.96ZM420.693 128.536C419.541 128.536 417.429 128.152 414.357 127.384C411.477 126.616 408.021 125.848 403.989 125.08C400.149 124.12 395.925 123.256 391.317 122.488C386.901 121.72 382.581 121.336 378.357 121.336C375.093 121.336 371.541 121.72 367.701 122.488C364.053 123.064 360.597 124.216 357.333 125.944C354.261 127.672 351.669 129.88 349.557 132.568C347.445 135.256 346.389 138.616 346.389 142.648C346.389 145.912 347.253 148.888 348.981 151.576C350.901 154.264 353.397 156.664 356.469 158.776C359.541 160.696 363.093 162.232 367.125 163.384C371.157 164.536 375.477 165.112 380.085 165.112C385.461 165.112 390.549 164.248 395.349 162.52C400.149 160.6 404.373 158.296 408.021 155.608C411.861 152.92 414.837 150.04 416.949 146.968C419.253 143.896 420.501 141.112 420.693 138.616V128.536ZM592.532 166.84C591.188 172.024 588.596 176.344 584.756 179.8C581.108 183.064 577.076 185.56 572.66 187.288C568.436 189.208 564.212 190.456 559.988 191.032C555.764 191.8 552.5 192.184 550.196 192.184C539.252 192.184 529.748 190.84 521.684 188.152C513.812 185.464 507.284 181.24 502.1 175.48C497.108 169.72 493.364 162.232 490.868 153.016C488.372 143.608 487.124 132.28 487.124 119.032V42.712H513.044V119.896C513.044 125.848 513.524 131.512 514.484 136.888C515.444 142.264 517.268 147.064 519.956 151.288C522.644 155.512 526.292 158.968 530.9 161.656C535.508 164.152 541.556 165.688 549.044 166.264C554.228 166.264 559.412 165.304 564.596 163.384C569.78 161.464 574.388 158.68 578.42 155.032C582.452 151.192 585.716 146.584 588.212 141.208C590.9 135.832 592.244 129.688 592.244 122.776V42.712H618.452V187H592.244L592.532 166.84ZM678.981 63.16C680.325 57.976 682.821 53.752 686.469 50.488C690.309 47.032 694.341 44.44 698.565 42.712C702.981 40.792 707.301 39.544 711.525 38.968C715.749 38.2 719.013 37.816 721.317 37.816C732.261 37.816 741.669 39.16 749.541 41.848C757.605 44.536 764.133 48.76 769.125 54.52C774.309 60.28 778.149 67.864 780.645 77.272C783.141 86.488 784.389 97.72 784.389 110.968V187.288H758.469V110.104C758.469 104.152 757.989 98.488 757.029 93.112C756.069 87.736 754.245 82.936 751.557 78.712C748.869 74.488 745.221 71.128 740.613 68.632C736.005 65.944 729.957 64.312 722.469 63.736C717.285 63.736 712.101 64.696 706.917 66.616C701.733 68.536 697.125 71.416 693.093 75.256C689.061 78.904 685.701 83.416 683.013 88.792C680.517 94.168 679.269 100.312 679.269 107.224V187.288H653.061V43H679.269L678.981 63.16Z" fill="#FEFEFE"/>
</svg>
